<svg width="43" height="43" viewBox="0 0 43 43" fill="none" xmlns="http://www.w3.org/2000/svg">
<mask id="mask0" mask-type="alpha" maskUnits="userSpaceOnUse" x="0" y="0" width="43" height="43">
<path fill-rule="evenodd" clip-rule="evenodd" d="M0.634277 0.734863H42.5113V42.6168H0.634277V0.734863Z" fill="white"/>
</mask>
<g mask="url(#mask0)">
<path fill-rule="evenodd" clip-rule="evenodd" d="M39.2392 29.4468C39.2392 31.251 37.7714 32.7188 35.9672 32.7188H34.3312V20.6123H35.9672C37.7714 20.6123 39.2392 22.0801 39.2392 23.8843V29.4468ZM35.9671 17.3403H32.695C31.7915 17.3403 31.059 18.0728 31.059 18.9763V36.0727C31.059 36.9748 30.3251 37.7087 29.423 37.7087H24.4332V37.7606C23.8751 36.7542 22.8024 36.0727 21.5701 36.0727C19.7631 36.0727 18.2981 37.5377 18.2981 39.3447C18.2981 41.1518 19.7631 42.6168 21.5701 42.6168C22.8024 42.6168 23.8751 41.9353 24.4332 40.9289V40.9807H29.423C32.1293 40.9807 34.331 38.779 34.331 36.0727V35.9909H35.9671C39.5755 35.9909 42.5111 33.0552 42.5111 29.4468V23.8844C42.5111 20.276 39.5755 17.3403 35.9671 17.3403ZM8.80935 32.7188H7.17334C5.36914 32.7188 3.90131 31.251 3.90131 29.4468V23.8843C3.90131 22.0801 5.36914 20.6123 7.17334 20.6123H8.80935V32.7188ZM10.4452 17.3404H7.21256C7.75866 9.89655 13.9893 4.00689 21.5701 4.00689C27.5689 4.00689 32.9971 7.78527 35.0775 13.409C35.3909 14.2564 36.332 14.6892 37.1795 14.3758C38.0269 14.0622 38.4598 13.1212 38.1463 12.2738C36.9064 8.92189 34.7036 6.05363 31.7762 3.979C28.7814 1.85668 25.2522 0.734863 21.5701 0.734863C16.8506 0.734863 12.4135 2.57276 9.0763 5.90999C5.7826 9.20369 3.95067 13.5689 3.90339 18.2195C1.94819 19.3525 0.62915 21.4667 0.62915 23.8845V29.4469C0.62915 33.0553 3.56482 35.991 7.17321 35.991H10.4452C11.3488 35.991 12.0813 35.2585 12.0813 34.355V18.9764C12.0813 18.0729 11.3488 17.3404 10.4452 17.3404Z" fill="#FFE831"/>
</g>
</svg>
