<svg width="40" height="37" viewBox="0 0 40 37" fill="none" xmlns="http://www.w3.org/2000/svg">
<mask id="mask0" mask-type="alpha" maskUnits="userSpaceOnUse" x="0" y="0" width="40" height="37">
<path fill-rule="evenodd" clip-rule="evenodd" d="M0.579834 0.298645H39.3993V36.6001H0.579834V0.298645Z" fill="white"/>
</mask>
<g mask="url(#mask0)">
<path fill-rule="evenodd" clip-rule="evenodd" d="M37.1244 34.3298H33.3077V27.1408H31.0329V34.3299H27.2162V27.1408H24.9414V34.3299H21.1247V23.862H18.8498V34.3298H15.0332V27.1408H12.7583V34.3299H9.27274C9.16173 34.3299 9.05132 34.327 8.9416 34.3214V27.1408H6.66675V33.7753C4.42057 32.7738 2.8501 30.5211 2.8501 27.9072V14.4758C3.24592 14.8811 3.69005 15.2643 4.18141 15.6208C6.39681 17.2281 9.32332 18.1133 12.4219 18.1133H37.1244V34.3298ZM5.51728 4.63245C7.34731 3.3047 9.79937 2.57349 12.4219 2.57349C15.0444 2.57349 17.4964 3.3047 19.3265 4.63245C21.0464 5.88035 21.9937 7.50459 21.9937 9.20594C21.9937 10.9073 21.0464 12.5315 19.3265 13.7794C17.4964 15.1072 15.0444 15.8384 12.4219 15.8384C9.79937 15.8384 7.34731 15.1072 5.51728 13.7794C3.79734 12.5315 2.8501 10.9074 2.8501 9.20594C2.8501 7.50451 3.79734 5.88035 5.51728 4.63245ZM21.9935 15.8385H20.3501C20.4555 15.7673 20.5599 15.6951 20.6623 15.6208C21.1536 15.2643 21.5977 14.8811 21.9935 14.4758V15.8385ZM24.2684 15.8385V9.20595C24.2684 6.75647 22.9877 4.47837 20.6623 2.79119C18.4469 1.18386 15.5204 0.298645 12.4218 0.298645C9.32326 0.298645 6.39667 1.18386 4.18135 2.79119C1.85586 4.47837 0.575195 6.75647 0.575195 9.20595V27.9072C0.575195 32.703 4.47686 36.6047 9.27268 36.6047H39.3992V15.8385H24.2684Z" fill="#030000"/>
</g>
<path fill-rule="evenodd" clip-rule="evenodd" d="M12.4219 7.12329C14.2112 7.12329 15.7228 8.07713 15.7228 9.20606C15.7228 10.3351 14.2112 11.2889 12.4219 11.2889C10.6326 11.2889 9.12085 10.3351 9.12085 9.20606C9.12085 8.07706 10.6326 7.12329 12.4219 7.12329ZM8.6154 12.4037C9.64643 13.1517 10.9982 13.5636 12.4218 13.5636C13.8454 13.5636 15.1972 13.1516 16.2282 12.4037C17.3527 11.5878 17.9976 10.4223 17.9976 9.206C17.9976 7.98972 17.3527 6.82417 16.2282 6.00833C15.1971 5.26029 13.8454 4.84839 12.4218 4.84839C10.9982 4.84839 9.64643 5.26036 8.6154 6.00833C7.49087 6.82417 6.84595 7.98972 6.84595 9.206C6.84595 10.4223 7.49094 11.5878 8.6154 12.4037Z" fill="#030000"/>
</svg>
