<svg width="24" height="23" viewBox="0 0 24 23" fill="none" xmlns="http://www.w3.org/2000/svg">
<path fill-rule="evenodd" clip-rule="evenodd" d="M11.8413 16.8659C14.873 16.8659 17.3173 14.4015 17.3173 11.3899C17.3173 8.37845 14.853 5.91504 11.8413 5.91504C8.82986 5.91504 6.36646 8.37845 6.36646 11.3899C6.36646 14.4015 8.8108 16.8659 11.8413 16.8659ZM11.8413 7.49902C13.9926 7.49902 15.7332 9.23988 15.7332 11.3899C15.7332 13.5412 13.9926 15.2818 11.8413 15.2818C9.6913 15.2818 7.95044 13.5412 7.95044 11.3899C7.95044 9.23988 9.6913 7.49902 11.8413 7.49902Z" fill="#FF1717"/>
<path fill-rule="evenodd" clip-rule="evenodd" d="M12.6435 3.37387V0.851061C12.6435 0.401302 12.2911 0.0490723 11.8413 0.0490723C11.3918 0.0490723 11.0403 0.401302 11.0403 0.851061V3.37387C11.0403 3.82338 11.3918 4.17488 11.8413 4.17488C12.2911 4.17488 12.6435 3.82338 12.6435 3.37387Z" fill="#FF1717"/>
<path fill-rule="evenodd" clip-rule="evenodd" d="M11.0403 19.4082V21.931C11.0403 22.3805 11.3918 22.733 11.8413 22.733C12.2911 22.733 12.6435 22.3805 12.6435 21.931V19.4082C12.6435 18.9584 12.2911 18.6072 11.8413 18.6072C11.3918 18.6072 11.0403 18.9584 11.0403 19.4082Z" fill="#FF1717"/>
<path fill-rule="evenodd" clip-rule="evenodd" d="M18.0802 6.28711L19.8589 4.50714C20.1721 4.19499 20.1721 3.68608 19.8589 3.37394C19.5468 3.06057 19.0379 3.06057 18.7248 3.37394L16.9458 5.15269C16.6327 5.46581 16.6327 5.97374 16.9458 6.28711C17.1025 6.44354 17.2973 6.52176 17.5131 6.52176C17.7277 6.52176 17.9235 6.44354 18.0802 6.28711Z" fill="#FF1717"/>
<path fill-rule="evenodd" clip-rule="evenodd" d="M3.82487 19.408C3.98033 19.5647 4.17612 19.6429 4.39195 19.6429C4.58677 19.6429 4.8026 19.5647 4.95806 19.408L6.73803 17.6293C7.05115 17.3161 7.05115 16.8072 6.73803 16.4948C6.42467 16.1817 5.91673 16.1817 5.60361 16.4948L3.82487 18.2738C3.5115 18.587 3.5115 19.0959 3.82487 19.408Z" fill="#FF1717"/>
<mask id="mask0" mask-type="alpha" maskUnits="userSpaceOnUse" x="0" y="10" width="24" height="3">
<path fill-rule="evenodd" clip-rule="evenodd" d="M0.514648 10.5891H23.1837V12.1924H0.514648V10.5891Z" fill="white"/>
</mask>
<g mask="url(#mask0)">
<path fill-rule="evenodd" clip-rule="evenodd" d="M23.1837 11.3901C23.1837 10.9406 22.8312 10.5891 22.3817 10.5891H19.8589C19.4091 10.5891 19.0579 10.9406 19.0579 11.3901C19.0579 11.8399 19.4091 12.1924 19.8589 12.1924H22.3817C22.8121 12.1924 23.1837 11.8399 23.1837 11.3901Z" fill="#FF1717"/>
<path fill-rule="evenodd" clip-rule="evenodd" d="M1.30199 12.1924H3.82479C4.27431 12.1924 4.6258 11.8399 4.6258 11.3901C4.6258 10.9406 4.27431 10.5891 3.82479 10.5891H1.30199C0.85223 10.5891 0.5 10.9406 0.5 11.3901C0.5 11.8399 0.87154 12.1924 1.30199 12.1924Z" fill="#FF1717"/>
</g>
<path fill-rule="evenodd" clip-rule="evenodd" d="M19.2919 19.6429C19.4876 19.6429 19.7025 19.5647 19.8589 19.408C20.1721 19.0959 20.1721 18.587 19.8589 18.2738L18.0802 16.4948C17.7671 16.1817 17.2582 16.1817 16.9458 16.4948C16.6327 16.8072 16.6327 17.3161 16.9458 17.6293L18.7248 19.408C18.8812 19.5647 19.0961 19.6429 19.2919 19.6429Z" fill="#FF1717"/>
<path fill-rule="evenodd" clip-rule="evenodd" d="M6.73803 6.28711C7.05115 5.97374 7.05115 5.46581 6.73803 5.15269L4.95806 3.37394C4.64592 3.06057 4.13701 3.06057 3.82487 3.37394C3.5115 3.68608 3.5115 4.19499 3.82487 4.50714L5.60361 6.28711C5.7603 6.44354 5.95584 6.52176 6.1707 6.52176C6.38556 6.52176 6.58135 6.44354 6.73803 6.28711Z" fill="#FF1717"/>
</svg>
