<svg width="37" height="42" viewBox="0 0 37 42" fill="none" xmlns="http://www.w3.org/2000/svg">
<mask id="mask0" mask-type="alpha" maskUnits="userSpaceOnUse" x="0" y="0" width="37" height="42">
<path fill-rule="evenodd" clip-rule="evenodd" d="M0.141846 0.938049H36.8379V41.9653H0.141846V0.938049Z" fill="white"/>
</mask>
<g mask="url(#mask0)">
<path fill-rule="evenodd" clip-rule="evenodd" d="M18.4877 24.4346C18.1901 24.4346 17.948 24.1925 17.948 23.8949C17.948 23.5973 18.1901 23.3552 18.4877 23.3552C18.7853 23.3552 19.0274 23.5973 19.0274 23.8949C19.0273 24.1925 18.7851 24.4346 18.4877 24.4346ZM20.9499 20.1466L19.2426 21.8539C19.0073 21.7666 18.753 21.7187 18.4876 21.7187C18.222 21.7187 17.9675 21.7667 17.732 21.8541L14.2228 18.3448C13.8677 17.9899 13.292 17.9899 12.937 18.3448C12.5819 18.6999 12.5818 19.2756 12.937 19.6307L16.4465 23.1403C16.3592 23.3756 16.3114 23.6297 16.3114 23.895C16.3114 25.0949 17.2876 26.0713 18.4877 26.0713C19.6877 26.0713 20.6639 25.095 20.6639 23.895C20.6639 23.6296 20.616 23.3752 20.5287 23.1397L22.236 21.4325C22.5909 21.0774 22.5909 20.5017 22.236 20.1465C21.8806 19.7917 21.3049 19.7917 20.9499 20.1466Z" fill="#030000"/>
<path fill-rule="evenodd" clip-rule="evenodd" d="M18.4874 39.5557C9.85199 39.5557 2.82666 32.5303 2.82666 23.8949C2.82666 15.2595 9.85199 8.23425 18.4874 8.23425C27.1228 8.23425 34.1481 15.2596 34.1481 23.8949C34.1481 32.5302 27.1227 39.5557 18.4874 39.5557ZM2.36609 9.46963C1.4538 7.42476 2.08732 4.94855 3.98835 3.61741C4.81979 3.03534 5.77375 2.75592 6.71905 2.75592C7.9352 2.75592 9.13685 3.21876 10.0425 4.09459L2.36609 9.46963ZM32.9864 3.61732C34.8875 4.94854 35.5209 7.42467 34.6088 9.46953L26.9324 4.0945C28.542 2.53787 31.0855 2.28642 32.9864 3.61732ZM29.2216 10.1098L30.2518 8.63858L34.3818 11.5305C34.5356 11.6384 34.718 11.695 34.9033 11.695C34.9559 11.695 35.0087 11.6905 35.0611 11.6812C35.2987 11.6393 35.5097 11.5049 35.648 11.3073C37.7326 8.3304 37.0064 4.21254 34.0295 2.12793C31.0526 0.0431576 26.9346 0.769466 24.8503 3.74642C24.5622 4.15781 24.6622 4.72466 25.0735 5.01273L28.7623 7.59559L27.7319 9.0672C25.0484 7.38814 21.8796 6.41582 18.4875 6.41582C15.0954 6.41582 11.9266 7.38814 9.24307 9.0672L8.21258 7.59559L11.9013 5.01273C12.3127 4.72466 12.4127 4.15781 12.1247 3.74642C10.0402 0.769386 5.92235 0.0433179 2.94524 2.12785C-0.0317071 4.2123 -0.757775 8.33016 1.32668 11.3072C1.46498 11.5048 1.67613 11.6393 1.91356 11.6811C1.96604 11.6905 2.01885 11.6949 2.07141 11.6949C2.25676 11.6949 2.43914 11.6382 2.59299 11.5304L6.72302 8.6385L7.75311 10.1097C3.65104 13.3113 1.00831 18.3 1.00831 23.8949C1.00831 29.9792 4.13375 35.3464 8.86277 38.478L7.42281 40.5344C7.13482 40.9457 7.23482 41.5127 7.64606 41.8007C7.80479 41.9119 7.98661 41.9653 8.16675 41.9653C8.4533 41.9653 8.73544 41.8301 8.91229 41.5774L10.4337 39.4046C12.8454 40.662 15.5846 41.3741 18.4874 41.3741C21.3897 41.3741 24.1288 40.6622 26.5402 39.4051L28.0613 41.5775C28.2381 41.8301 28.5202 41.9653 28.8068 41.9653C28.9868 41.9653 29.1689 41.912 29.3275 41.8008C29.7388 41.5128 29.8388 40.9458 29.5508 40.5345L28.1111 38.4786C32.8406 35.3472 35.9664 29.9797 35.9664 23.8951C35.9666 18.3 33.3239 13.3113 29.2216 10.1098Z" fill="#030000"/>
</g>
<path fill-rule="evenodd" clip-rule="evenodd" d="M28.794 24.8041H29.6684C29.4741 27.2151 28.5141 29.4128 27.0326 31.1542L26.4182 30.5399C26.0632 30.1849 25.4875 30.1849 25.1324 30.5399C24.7774 30.895 24.7774 31.4706 25.1324 31.8257L25.7467 32.44C24.0054 33.9217 21.8075 34.8817 19.3967 35.076V34.2016C19.3967 33.6995 18.9896 33.2924 18.4874 33.2924C17.9852 33.2924 17.5782 33.6995 17.5782 34.2016V35.076C15.1672 34.8817 12.9694 33.9217 11.228 32.44L11.8424 31.8257C12.1974 31.4706 12.1974 30.895 11.8424 30.5399C11.4873 30.1849 10.9116 30.1849 10.5564 30.5399L9.94215 31.1543C8.46052 29.4129 7.50047 27.2151 7.30615 24.8041H8.18062C8.68272 24.8041 9.08979 24.397 9.08979 23.8949C9.08979 23.3927 8.68272 22.9856 8.18062 22.9856H7.30615C7.50047 20.5746 8.46052 18.3769 9.94215 16.6355L10.5564 17.2498C10.734 17.4273 10.9667 17.5161 11.1994 17.5161C11.432 17.5161 11.6648 17.4273 11.8423 17.2498C12.1974 16.8948 12.1974 16.3191 11.8423 15.964L11.2279 15.3496C12.9693 13.868 15.1671 12.9079 17.5781 12.7137V13.5882C17.5781 14.0902 17.9851 14.4973 18.4873 14.4973C18.9895 14.4973 19.3965 14.0902 19.3965 13.5882V12.7137C21.8075 12.9079 24.0052 13.868 25.7466 15.3496L25.1324 15.964C24.7773 16.3189 24.7773 16.8947 25.1324 17.2498C25.3099 17.4273 25.5426 17.5161 25.7753 17.5161C26.0079 17.5161 26.2407 17.4273 26.4181 17.2498L27.0325 16.6355C28.5141 18.3769 29.474 20.5746 29.6683 22.9856H28.7939C28.2918 22.9856 27.8847 23.3927 27.8847 23.8949C27.8847 24.397 28.2919 24.8041 28.794 24.8041ZM18.4875 11.0401C11.3994 11.0401 5.63281 16.8067 5.63281 23.8948C5.63281 30.9829 11.3994 36.7495 18.4875 36.7495C25.5756 36.7495 31.3422 30.9829 31.3422 23.8948C31.3422 16.8067 25.5756 11.0401 18.4875 11.0401Z" fill="#030000"/>
</svg>
