<svg width="47" height="32" viewBox="0 0 47 32" fill="none" xmlns="http://www.w3.org/2000/svg">
<mask id="mask0" mask-type="alpha" maskUnits="userSpaceOnUse" x="0" y="0" width="47" height="32">
<path fill-rule="evenodd" clip-rule="evenodd" d="M0.544434 0.0012207H46.019V31.9363H0.544434V0.0012207Z" fill="white"/>
</mask>
<g mask="url(#mask0)">
<path fill-rule="evenodd" clip-rule="evenodd" d="M43.3695 25.6077H41.6413C41.0588 23.4853 39.1136 21.921 36.8088 21.921C34.5041 21.921 32.559 23.4853 31.9765 25.6077H30.5555V9.41455H36.3787L43.3695 17.3949V25.6077ZM36.8088 29.2944C35.5064 29.2944 34.447 28.2347 34.447 26.9324C34.447 25.6302 35.5064 24.5706 36.8088 24.5706C38.1111 24.5706 39.1706 25.6302 39.1706 26.9324C39.1706 28.2347 38.1112 29.2944 36.8088 29.2944ZM9.46684 29.2944C8.16452 29.2944 7.1051 28.2347 7.1051 26.9324C7.1051 25.6302 8.16452 24.5706 9.46684 24.5706C10.7692 24.5706 11.8287 25.6302 11.8287 26.9324C11.8287 28.2347 10.7692 29.2944 9.46684 29.2944ZM27.9059 25.6076H14.2993C13.7167 23.4853 11.7714 21.9209 9.46668 21.9209C7.16184 21.9209 5.21694 23.4853 4.63423 25.6076H3.19397V2.65063H27.9058V25.6076H27.9059ZM36.8089 31.944C39.1137 31.944 41.0588 30.3797 41.6415 28.2573H44.6943C45.4258 28.2573 46.019 27.6641 46.019 26.9324V16.8967C46.019 16.5756 45.9023 16.2654 45.6908 16.0238L37.9763 7.21684C37.7247 6.92977 37.3613 6.76493 36.9797 6.76493H30.5558V1.32601C30.5558 0.594317 29.9626 0.0012207 29.231 0.0012207H1.86935C1.13779 0.0012207 0.544434 0.594317 0.544434 1.32601V3.11361V5.76319V22.9366V25.5862V26.9325C0.544434 27.6644 1.13779 28.2575 1.86935 28.2575H4.63441C5.21698 30.3798 7.16202 31.9441 9.46686 31.9441C11.7716 31.9441 13.7167 30.3798 14.2994 28.2575H31.9766C32.559 30.3797 34.5042 31.944 36.8089 31.944Z" fill="#030000"/>
</g>
</svg>
