<svg width="74" height="83" viewBox="0 0 74 83" fill="none" xmlns="http://www.w3.org/2000/svg">
<path fill-rule="evenodd" clip-rule="evenodd" d="M10.3357 5.04974H63.4321C66.5786 5.04974 69.153 7.62414 69.153 10.7704V72.6677C69.153 75.8142 66.5786 78.3884 63.4321 78.3884H10.3357C7.18926 78.3884 4.61487 75.8142 4.61487 72.6677V10.7704C4.61487 7.62414 7.18926 5.04974 10.3357 5.04974Z" stroke="#FFDA1A" stroke-width="9.184" stroke-linecap="round" stroke-linejoin="round"/>
<path fill-rule="evenodd" clip-rule="evenodd" d="M10.3357 5.04974H63.4321C66.5786 5.04974 69.153 7.62414 69.153 10.7704V72.6677C69.153 75.8142 66.5786 78.3884 63.4321 78.3884H10.3357C7.18926 78.3884 4.61487 75.8142 4.61487 72.6677V10.7704C4.61487 7.62414 7.18926 5.04974 10.3357 5.04974Z" fill="#030000"/>
<path fill-rule="evenodd" clip-rule="evenodd" d="M61.0435 74.7064L62.6333 71.8847H63.2677L64.8856 74.7064H64.1475L63.8087 74.0887H62.021L61.693 74.7064H61.0435ZM62.3052 73.5791H63.5409L62.9284 72.4322L62.3052 73.5791ZM57.4331 72.3884H59.2043V72.9908H58.2366V73.5427H59.2043V74.177H57.4331V73.5691L56.7771 73.706V74.0395C56.7771 74.2945 56.8245 74.4693 56.9201 74.5651C57.0214 74.6589 57.2071 74.7064 57.4777 74.7064H59.2743C59.3489 74.7064 59.4318 74.6909 59.5232 74.6598C59.6142 74.6291 59.6934 74.5733 59.7601 74.4938C59.8265 74.4139 59.8603 74.3082 59.8603 74.177V73.6574C59.8603 73.5374 59.8338 73.4526 59.7808 73.4025C59.7281 73.3524 59.649 73.2987 59.5433 73.2411C59.6309 73.2049 59.7054 73.1546 59.7672 73.0917C59.8292 73.029 59.8603 72.9553 59.8603 72.8707V72.5524C59.8603 72.2984 59.8128 72.1236 59.7173 72.0276C59.6168 71.9329 59.4312 71.8856 59.1595 71.8856H57.4777C57.2062 71.8856 57.0203 71.9329 56.9201 72.0286C56.8245 72.1236 56.7771 72.2984 56.7771 72.5524V72.8211L57.4331 72.9251V72.3884ZM51.7114 74.7064L53.3013 71.8847H53.9353L55.5534 74.7064H54.8155L54.4767 74.0887H52.689L52.361 74.7064H51.7114ZM52.9733 73.5791H54.2086L53.5963 72.4322L52.9733 73.5791ZM47.5261 71.8847V74.7064H49.9371C50.1581 74.7064 50.3232 74.6644 50.4296 74.5806C50.5271 74.4933 50.5764 74.3517 50.5764 74.1596V73.5309C50.5764 73.3425 50.5271 73.2038 50.4296 73.1155C50.3248 73.029 50.1601 72.9851 49.9371 72.9851H48.171V72.3721H50.2976L50.4845 71.8847H47.5261ZM49.6472 74.219H48.171V73.47H49.6472C49.7583 73.47 49.8366 73.4865 49.8823 73.519C49.9223 73.5537 49.9423 73.6121 49.9423 73.694V73.9956C49.9423 74.0777 49.9223 74.136 49.8823 74.1708C49.8384 74.2026 49.76 74.219 49.6472 74.219ZM41.6031 74.7064V71.8847H39.1932C38.972 71.8847 38.8069 71.9275 38.7003 72.0112C38.6027 72.0977 38.5537 72.2383 38.5537 72.4322V73.0937C38.5537 73.2831 38.6027 73.4213 38.7003 73.5093C38.8043 73.5965 38.968 73.6402 39.1932 73.6402H39.5585L38.2577 74.7064H39.1987L40.3357 73.6402H40.9588V74.7064H41.6031ZM39.483 72.3721H40.9588V73.1603H39.483C39.37 73.1603 39.2918 73.1438 39.2479 73.1109C39.2077 73.0764 39.1877 73.018 39.1877 72.9361V72.5962C39.1877 72.5125 39.2077 72.4542 39.2479 72.4213C39.2918 72.3884 39.37 72.3721 39.483 72.3721ZM33.3075 74.7064L34.8975 71.8847H35.5318L37.1498 74.7064H36.4117L36.0728 74.0887H34.2853L33.9573 74.7064H33.3075ZM34.5693 73.5791H35.8051L35.1928 72.4322L34.5693 73.5791ZM29.0795 74.7064V71.8847H31.4957C31.7162 71.8847 31.8793 71.9284 31.983 72.0169C32.0806 72.1042 32.1298 72.2427 32.1298 72.4322V72.7756C32.1298 72.908 32.0879 73.0153 32.004 73.0992C31.9175 73.1857 31.7974 73.236 31.6433 73.2513C31.8063 73.2732 31.9319 73.3325 32.0206 73.427C32.1087 73.519 32.1526 73.6411 32.1526 73.7932V74.1534C32.1526 74.3364 32.0833 74.4748 31.944 74.5704C31.81 74.6607 31.6023 74.7064 31.3207 74.7064H29.0795ZM31.2212 73.4807H29.7242V74.1969H31.2212C31.3479 74.1969 31.432 74.1788 31.4737 74.1422C31.5174 74.104 31.5395 74.0384 31.5395 73.9464V73.733C31.5395 73.6394 31.5174 73.5736 31.4737 73.5354C31.4309 73.499 31.347 73.4807 31.2212 73.4807ZM31.2212 72.3449H29.7242V73.0162H31.2212C31.3326 73.0162 31.4108 73.0014 31.4564 72.9733C31.5011 72.9396 31.5231 72.8868 31.5231 72.8149V72.5462C31.5231 72.4741 31.5011 72.4213 31.4564 72.3875C31.4108 72.3593 31.3326 72.3449 31.2212 72.3449ZM24.8729 74.1758H27.0378V72.3883H24.8729V74.1758ZM24.2161 72.5513C24.2161 72.2964 24.2636 72.1216 24.3574 72.0276C24.4587 71.932 24.6442 71.8847 24.9159 71.8847H26.9943C27.2673 71.8847 27.4516 71.932 27.5463 72.0276C27.6457 72.1207 27.6947 72.2955 27.6947 72.5513V74.0384C27.6947 74.2964 27.6457 74.4711 27.5463 74.5651C27.4506 74.6589 27.2665 74.7064 26.9943 74.7064H24.9159C24.6453 74.7064 24.4594 74.6589 24.3574 74.5651C24.2636 74.4704 24.2161 74.2953 24.2161 74.0384V72.5513ZM21.7819 72.3884V74.7064H21.1252V72.3884H19.8306V71.8847H23.0831V72.3884H21.7819ZM16.0942 74.7064V72.4158H17.9617V74.7064H18.619V71.8847H15.4373V74.7064H16.0942ZM11.0397 74.1758H13.2043V72.3883H11.0397V74.1758ZM10.3826 72.5513C10.3826 72.2964 10.4301 72.1216 10.5237 72.0276C10.625 71.932 10.8108 71.8847 11.0821 71.8847H13.1604C13.4338 71.8847 13.6181 71.932 13.7126 72.0276C13.8119 72.1207 13.861 72.2955 13.861 72.5513V74.0384C13.861 74.2964 13.8119 74.4711 13.7126 74.5651C13.617 74.6589 13.433 74.7064 13.1604 74.7064H11.0821C10.8117 74.7064 10.6257 74.6589 10.5237 74.5651C10.4301 74.4704 10.3826 74.2953 10.3826 74.0384V72.5513Z" fill="#FFDA1A"/>
<path fill-rule="evenodd" clip-rule="evenodd" d="M26.5702 10.075L9.49121 19.8231V52.812H26.3764L26.5702 10.075Z" fill="#FFDA1A"/>
<path fill-rule="evenodd" clip-rule="evenodd" d="M26.5702 10.075L9.49121 19.8231V52.812H26.3764L26.5702 10.075Z" stroke="#1A1919" stroke-width="0.567"/>
<path fill-rule="evenodd" clip-rule="evenodd" d="M45.1751 10.075L28.0961 19.8231V52.812H44.9813L45.1751 10.075Z" fill="#FFDA1A"/>
<path fill-rule="evenodd" clip-rule="evenodd" d="M45.1751 10.075L28.0961 19.8231V52.812H44.9813L45.1751 10.075Z" stroke="#1A1919" stroke-width="0.567"/>
<path fill-rule="evenodd" clip-rule="evenodd" d="M64.4055 9.58276L47.3263 19.443V52.812H64.2115L64.4055 9.58276Z" fill="#FFDA1A"/>
<path fill-rule="evenodd" clip-rule="evenodd" d="M64.4055 9.58276L47.3263 19.443V52.812H64.2115L64.4055 9.58276Z" stroke="#1A1919" stroke-width="0.567"/>
<path fill-rule="evenodd" clip-rule="evenodd" d="M16.006 37.3497L15.1757 36.1688C15.3147 36.0409 15.45 35.9531 15.5802 35.9017C16.0837 35.7154 16.7172 35.6238 17.4759 35.6238C18.2387 35.6238 18.8676 35.8507 19.3627 36.3005C19.7876 36.6917 20.1744 37.2402 20.5238 37.9494C20.869 38.6549 21.2504 39.664 21.6595 40.9692C21.8769 41.6347 22.0486 42.1319 22.1795 42.4682C22.5806 43.4042 22.8406 44.0037 22.9655 44.2634C23.0871 44.523 23.3024 44.9396 23.6039 45.5102C23.7023 45.6746 23.8334 45.9048 23.9966 46.2011C24.1597 46.4973 24.3162 46.7752 24.4619 47.031C24.7861 47.5868 25.2543 48.3252 25.873 49.2394C25.3581 49.6597 24.9135 49.9634 24.542 50.1497C24.1696 50.3323 23.8149 50.4276 23.4834 50.4276C23.0702 50.4276 22.7145 50.3435 22.4126 50.1787C22.1115 50.018 21.8182 49.7549 21.5385 49.4003C21.1906 48.9139 20.8169 48.2521 20.4148 47.4188C20.3728 47.338 20.3243 47.2396 20.2653 47.1188C20.2053 46.9942 20.141 46.8628 20.0673 46.7202C19.3131 47.0712 18.708 47.2467 18.2555 47.2467C17.999 47.2467 17.7734 47.2396 17.5858 47.2248C17.4231 47.2102 16.678 47.1882 15.3514 47.1592L15.2803 47.3745C15.0304 48.2084 14.7728 48.8443 14.5135 49.2794C14.2516 49.7184 13.9177 50.0252 13.512 50.2009C13.1072 50.38 12.5774 50.4714 11.9253 50.4714C11.5477 50.4714 11.2729 50.4276 11.0981 50.3398C10.9239 50.2555 10.8223 50.1168 10.7903 49.923C10.7513 49.6889 11.0246 49.0383 11.6139 47.9742C11.8227 47.6012 11.977 47.3089 12.0739 47.0966C11.3197 46.9542 10.9082 46.6873 10.8447 46.3033C10.7925 45.9889 11.0067 45.521 11.4879 44.8994C11.7159 44.5996 11.9445 44.4096 12.1691 44.3257C12.3982 44.2451 12.8114 44.2012 13.4087 44.1939C13.7901 43.1446 14.032 42.4757 14.1366 42.183C14.2417 41.8943 14.3812 41.5323 14.5507 41.0935C14.7236 40.6547 14.9148 40.1541 15.1313 39.5908C15.3482 39.0316 15.6414 38.2858 16.006 37.3497ZM17.3714 40.1649L16.1433 44.3328H18.983L17.4143 40.1649H17.3714Z" fill="#030000"/>
<path fill-rule="evenodd" clip-rule="evenodd" d="M33.1418 38.4274L33.2376 38.0547C32.9738 38.0547 32.7533 38.0728 32.5783 38.113C32.407 38.1532 32.2035 38.2154 31.9717 38.2997C31.6903 38.402 31.4921 38.4496 31.3824 38.4496C31.2482 38.4496 31.1261 38.4057 31.0228 38.3106C30.916 38.219 30.8541 38.1059 30.8285 37.9704C30.7751 37.6888 30.8429 37.4038 31.0389 37.1076C31.2307 36.8118 31.4998 36.603 31.8421 36.4789C32.2849 36.3072 32.8729 36.1719 33.6051 36.0693C34.3327 35.9631 35.0668 35.9121 35.8061 35.9121C36.6393 35.9121 37.3975 35.9671 38.0798 36.073C38.7621 36.179 39.3839 36.3509 39.9448 36.5884C40.5052 36.8224 41.0158 37.1151 41.4681 37.466C41.9248 37.8172 42.3025 38.2229 42.5974 38.6872C42.8969 39.1514 43.096 39.6449 43.1942 40.1641C43.2836 40.636 43.2785 41.1658 43.1779 41.7509C43.0814 42.3359 42.8971 42.9064 42.6285 43.462C42.3605 44.0214 42.0433 44.4929 41.669 44.8767C41.2383 45.3266 40.6602 45.7069 39.9267 46.0175C39.1972 46.3282 38.5078 46.4854 37.8576 46.4854C37.5775 46.4854 37.3243 46.438 37.0967 46.3503C36.8727 46.2625 36.7464 46.1528 36.7221 46.025C36.6841 45.8237 36.73 45.6372 36.8634 45.4617C36.9969 45.2864 37.2647 45.0707 37.6591 44.8145C38.003 44.6136 38.3149 44.3723 38.5953 44.0944C38.9155 43.7033 39.129 43.2865 39.2321 42.844C39.3345 42.3979 39.3283 41.8716 39.2118 41.2574C39.1012 40.6726 38.8934 40.1751 38.5968 39.7694C38.2959 39.3599 37.8657 38.9979 37.305 38.6761L36.5766 43.4325L36.438 44.2662C36.3702 44.5951 36.3062 45.1582 36.2466 45.959C36.1177 47.3374 35.9332 48.2954 35.693 48.8291C35.5878 49.0665 35.4363 49.2971 35.2441 49.5276C34.9191 49.8269 34.4847 50.0865 33.9468 50.3134C33.4043 50.5401 32.9213 50.6496 32.5028 50.6496C32.2264 50.6496 31.9892 50.5767 31.7989 50.4303C31.6086 50.284 31.4887 50.0794 31.4388 49.8161C31.3834 49.5236 31.3832 49.0923 31.4388 48.5294C31.4945 47.9663 31.6408 46.9573 31.8724 45.4983L31.9741 44.8988L32.0737 44.2443L33.1418 38.4274Z" fill="#030000"/>
<path fill-rule="evenodd" clip-rule="evenodd" d="M57.7345 43.7477L57.6998 44.2085C57.689 44.3657 57.6813 44.4975 57.6703 44.6109C57.6584 44.7204 57.6522 44.8156 57.6476 44.8995C57.6427 44.98 57.6385 45.0641 57.6305 45.1518C57.4734 47.3492 57.2743 48.7241 57.0282 49.2724C56.916 49.5174 56.7167 49.7331 56.4357 49.9269C55.5451 50.5122 54.8149 50.8045 54.241 50.8045C53.8419 50.8045 53.4836 50.6765 53.157 50.4134C52.8347 50.1536 52.6353 49.8319 52.5618 49.4444C52.429 48.7459 52.5256 47.4516 52.8525 45.5685C52.9461 44.969 53.0342 44.4461 53.1212 44.0037C53.2082 43.5612 53.3207 43.0605 53.4594 42.5047C53.5942 41.9489 53.758 41.3531 53.9448 40.728C54.1308 40.0989 54.2626 39.6564 54.3438 39.397C53.3188 39.5323 52.3223 39.6016 51.3491 39.6016C50.3718 39.6016 49.825 39.2946 49.7085 38.6803C49.6341 38.289 49.8568 37.7881 50.3808 37.1813C50.7333 36.7864 51.081 36.5156 51.4141 36.362C51.7515 36.2087 52.1807 36.1319 52.698 36.1319C53.0316 36.1319 53.4892 36.139 54.0748 36.1573C56.1885 36.2238 59.769 36.0867 61.5936 36.4436C61.886 36.501 62.1514 36.6028 62.3736 36.7765C62.5727 36.9321 62.6813 37.1312 62.7218 37.3468C62.7652 37.5735 62.7558 37.8075 62.7041 38.0452C62.6513 38.2865 62.552 38.4534 62.4421 38.5754C62.269 38.7682 59.1002 38.9948 58.2036 39.1189C58.1232 39.1301 58.0424 39.1264 57.9553 39.1408L57.7235 39.1849C57.9477 39.3566 58.0806 39.5431 58.1201 39.7517C58.1583 39.9528 58.1263 40.3841 58.032 41.0461C57.9899 41.2104 57.9215 41.7516 57.8266 42.6656L57.7694 43.3089L57.7345 43.7477Z" fill="#030000"/>
<path fill-rule="evenodd" clip-rule="evenodd" d="M59.3578 55.5339H62.7703V54.5024H59.3578V55.5339Z" fill="#FFDA1A"/>
<path fill-rule="evenodd" clip-rule="evenodd" d="M64.6973 68.8492H61.9618V63.1209L60.2586 68.8492H57.3904V56.257H60.1258V61.9376L61.9618 56.257H64.6973V68.8492ZM49.186 59.4992C49.186 58.9129 49.154 58.5385 49.0878 58.3741C49.024 58.2123 48.8916 58.1302 48.6896 58.1302C48.5172 58.1302 48.3872 58.1966 48.2969 58.329C48.2042 58.4589 48.1591 58.8491 48.1591 59.4992V65.3735C48.1591 66.1061 48.1911 66.5566 48.2492 66.7266C48.3075 66.899 48.4481 66.9838 48.6657 66.9838C48.8887 66.9838 49.0293 66.8858 49.0929 66.6895C49.154 66.4904 49.186 66.0234 49.186 65.2806V59.4992ZM52.4574 63.633C52.4574 64.8985 52.4281 65.7927 52.3696 66.3181C52.3087 66.8458 52.123 67.3263 51.81 67.7616C51.4968 68.1967 51.0723 68.5309 50.539 68.7644C50.0056 68.9978 49.3824 69.1145 48.6737 69.1145C48 69.1145 47.3947 69.0031 46.859 68.7828C46.3202 68.5627 45.8907 68.2336 45.5642 67.7934C45.2377 67.3528 45.0443 66.8727 44.9803 66.3551C44.9194 65.8351 44.8876 64.9277 44.8876 63.633V61.4813C44.8876 60.2157 44.9168 59.3213 44.9779 58.7933C45.0362 58.2681 45.2218 57.7878 45.5375 57.3528C45.8507 56.9175 46.2727 56.5833 46.8087 56.3497C47.3419 56.1164 47.9627 55.9995 48.6737 55.9995C49.3476 55.9995 49.9524 56.1111 50.4883 56.3312C51.0245 56.5513 51.4569 56.8806 51.7833 57.321C52.1096 57.7615 52.3036 58.2416 52.3645 58.759C52.4281 59.2791 52.4574 60.1839 52.4574 61.4813V63.633ZM36.5504 58.4167V61.6191C36.6433 61.6244 36.7228 61.627 36.7892 61.627C37.0918 61.627 37.2987 61.5529 37.4154 61.4069C37.532 61.2584 37.5905 60.9503 37.5905 60.486V59.4515C37.5905 59.0215 37.5243 58.7403 37.3887 58.6129C37.2534 58.4829 36.9749 58.4167 36.5504 58.4167ZM33.2762 56.2646H36.5717C37.4632 56.2646 38.1506 56.3337 38.628 56.4745C39.1083 56.6149 39.469 56.8168 39.7077 57.0793C39.9493 57.3448 40.114 57.6656 40.1986 58.0397C40.2837 58.4167 40.3261 58.9979 40.3261 59.7857V60.8814C40.3261 61.6855 40.2436 62.2718 40.0794 62.6382C39.912 63.0066 39.607 63.2879 39.1638 63.4869C38.7208 63.6836 38.1424 63.7816 37.4286 63.7816H36.5505V68.8492H33.2762V56.2646ZM28.8154 56.2646V58.7827H26.8732V68.8492H23.6021V58.7827H21.665V56.2646H28.8154ZM17.3397 61.7518H14.0682V59.5601C14.0682 58.9233 14.0311 58.5255 13.9621 58.3662C13.893 58.2096 13.7391 58.1302 13.5005 58.1302C13.2299 58.1302 13.0599 58.2256 12.9856 58.4167C12.9142 58.6101 12.8767 59.0242 12.8767 59.661V65.5058C12.8767 66.1189 12.9142 66.5171 12.9856 66.7026C13.0599 66.8911 13.2219 66.9838 13.4764 66.9838C13.7206 66.9838 13.8799 66.8911 13.9539 66.7026C14.0283 66.5171 14.0682 66.0792 14.0682 65.3894V63.8132H17.3397V64.3016C17.3397 65.6016 17.2466 66.5249 17.0636 67.0688C16.8806 67.6129 16.472 68.0905 15.8432 68.4987C15.2145 68.9077 14.4371 69.1145 13.5164 69.1145C12.5558 69.1145 11.7651 68.9395 11.1442 68.5918C10.5233 68.2444 10.1094 67.7641 9.90793 67.1513C9.70627 66.5357 9.60535 65.6121 9.60535 64.3783V60.7039C9.60535 59.7963 9.63734 59.1169 9.69822 58.6635C9.76203 58.2096 9.94504 57.7721 10.2555 57.3528C10.5632 56.9336 10.9904 56.6018 11.5367 56.3603C12.0836 56.1213 12.7125 55.9995 13.4208 55.9995C14.3865 55.9995 15.1823 56.1877 15.8087 56.5594C16.4349 56.9336 16.8462 57.3978 17.0451 57.9551C17.2413 58.512 17.3397 59.3797 17.3397 60.5552V61.7518Z" fill="#FFDA1A"/>
</svg>
