<svg width="18" height="20" viewBox="0 0 18 20" fill="none" xmlns="http://www.w3.org/2000/svg">
<mask id="mask0" mask-type="alpha" maskUnits="userSpaceOnUse" x="0" y="0" width="18" height="20">
<path fill-rule="evenodd" clip-rule="evenodd" d="M0.5 0.252686H17.6946V19.9265H0.5V0.252686Z" fill="white"/>
</mask>
<g mask="url(#mask0)">
<path fill-rule="evenodd" clip-rule="evenodd" d="M17.3973 14.1835L15.2726 12.9557L17.0659 11.8871C17.354 11.7482 17.444 11.361 17.2794 11.0764C17.1126 10.7852 16.7525 10.724 16.479 10.8831L14.0881 12.2842L10.2876 10.0724L14.0881 7.88418L16.479 9.28187C16.5535 9.33624 16.65 9.36841 16.7568 9.36841C16.9592 9.36841 17.1405 9.27304 17.2794 9.09058C17.4397 8.80136 17.354 8.41906 17.0659 8.27986L15.2726 7.21238L17.3973 5.98492C17.6742 5.82465 17.7688 5.46769 17.6108 5.1742C17.4596 4.89182 17.085 4.79389 16.7992 4.95957L14.6642 6.19841L14.6321 4.06231C14.6275 3.73211 14.3762 3.46623 14.0448 3.46623C13.7146 3.46623 13.4556 3.75317 13.4578 4.06231L13.4789 6.88217L9.7003 9.07065V4.62936L12.0812 3.27266C12.359 3.11496 12.4803 2.74917 12.3158 2.46223C12.149 2.1696 11.8065 2.0842 11.515 2.24759L9.7003 3.27266V0.849906C9.7003 0.519698 9.43358 0.252686 9.10337 0.252686C8.77202 0.252686 8.51611 0.519698 8.51611 0.849906V3.29515L6.63706 2.24759C6.34443 2.08619 6.0108 2.17757 5.84741 2.46223C5.6806 2.75344 5.78393 3.1104 6.07087 3.27266L8.51611 4.65042V9.04731L4.65098 6.81784L4.67318 4.06231C4.70535 3.75317 4.42752 3.46623 4.09617 3.46623H4.0751C3.76596 3.46623 3.49126 3.73211 3.48785 4.06231L3.46678 6.13493L1.38505 4.93964C1.09498 4.77055 0.735739 4.87075 0.584583 5.15086C0.425457 5.44662 0.507725 5.7959 0.79808 5.96385L2.90088 7.18021L1.06481 8.27986C0.777015 8.41906 0.686777 8.80591 0.862413 9.09058C0.974854 9.27504 1.13939 9.36841 1.36399 9.36841C1.4807 9.36841 1.57862 9.33965 1.67313 9.28187L4.0751 7.86283L7.92914 10.0724L4.0751 12.3041L1.67313 10.8831C1.38505 10.7151 1.01271 10.794 0.862413 11.0764C0.703572 11.3701 0.789255 11.7237 1.06481 11.8871L2.90088 12.9756L0.79808 14.2034C0.508863 14.3725 0.414356 14.7272 0.584583 15.0161C0.703572 15.2162 0.862413 15.3141 1.08616 15.3141C1.13939 15.3141 1.24614 15.2831 1.38505 15.2285L3.46678 14.032L3.48785 16.1049C3.49126 16.4351 3.76596 16.6896 4.0751 16.6896H4.09617C4.42752 16.6896 4.67546 16.4149 4.67318 16.0824L4.65098 13.3295L8.51611 11.1199V15.4943L6.07087 16.8721C5.77966 17.0366 5.67747 17.3936 5.84741 17.6825C5.96526 17.8861 6.12438 17.984 6.34898 17.984C6.45573 17.984 6.55365 17.9652 6.63706 17.9174L8.51611 16.8522V19.3384C8.51611 19.6686 8.77202 19.9265 9.10337 19.9265C9.43358 19.9265 9.7003 19.6686 9.7003 19.3384V16.8932L11.515 17.9174C11.5984 17.9652 11.6964 17.984 11.7931 17.984C12.0277 17.984 12.2011 17.8883 12.3158 17.6825C12.478 17.3959 12.3736 17.0366 12.0812 16.8721L9.7003 15.5376V11.0977L13.4789 13.2859L13.4578 16.0824C13.4556 16.4149 13.7146 16.6896 14.0448 16.6896C14.3762 16.6896 14.6275 16.4351 14.6321 16.1049L14.6642 13.9577L16.7992 15.2074C16.8815 15.2552 16.9916 15.272 17.1095 15.272C17.3329 15.272 17.4975 15.1786 17.6108 14.9939C17.7855 14.7092 17.6742 14.3423 17.3973 14.1835Z" fill="#4A8CE6"/>
</g>
</svg>
