<svg width="15" height="20" viewBox="0 0 15 20" fill="none" xmlns="http://www.w3.org/2000/svg">
<mask id="mask0" mask-type="alpha" maskUnits="userSpaceOnUse" x="0" y="0" width="15" height="20">
<path fill-rule="evenodd" clip-rule="evenodd" d="M0.518799 0.130859H14.6131V19.4058H0.518799V0.130859Z" fill="white"/>
</mask>
<g mask="url(#mask0)">
<path fill-rule="evenodd" clip-rule="evenodd" d="M7.55714 19.4058C3.66534 19.4058 0.5 16.2405 0.5 12.349C0.5 8.71042 6.30515 1.25452 6.96777 0.416939C7.10956 0.236026 7.32709 0.130859 7.55714 0.130859C7.78563 0.130859 8.00347 0.236026 8.14651 0.416939C8.80788 1.25452 14.613 8.71042 14.613 12.349C14.6143 16.2405 11.4477 19.4058 7.55714 19.4058ZM7.55713 2.11279C5.59245 4.71974 2.00269 9.9734 2.00269 12.349C2.00269 15.4117 4.49445 17.9035 7.55713 17.9035C10.6198 17.9035 13.1116 15.4117 13.1116 12.349C13.1116 9.9734 9.52181 4.71974 7.55713 2.11279Z" fill="#010C5E"/>
</g>
<path fill-rule="evenodd" clip-rule="evenodd" d="M7.55724 16.402C7.14283 16.402 6.80542 16.0659 6.80542 15.6511C6.80542 15.2355 7.14283 14.8993 7.55724 14.8993C8.96322 14.8993 10.1075 13.7563 10.1075 12.35C10.1075 11.9343 10.444 11.5981 10.8584 11.5981C11.2741 11.5981 11.6102 11.9343 11.6102 12.35C11.6102 14.5838 9.79235 16.402 7.55724 16.402Z" fill="#010C5E"/>
</svg>
